<?xml version="1.0" encoding="utf-8"?>
<!-- Generator: Adobe Illustrator 23.0.3, SVG Export Plug-In . SVG Version: 6.00 Build 0)  -->
<svg version="1.1" id="Capa_1" xmlns="http://www.w3.org/2000/svg" xmlns:xlink="http://www.w3.org/1999/xlink" x="0px" y="0px"
	 viewBox="0 0 308 120" style="enable-background:new 0 0 308 120;" xml:space="preserve">
<style type="text/css">
	.st0{fill:#2A605E;}
	.st1{fill:#55BBA7;}
	.st2{fill:#FFA110;}
	.st3{fill:#F68C0B;}
	.st4{fill:#FFFFFF;}
	.st5{fill:#4D4D4D;}
</style>
<g>
	<g>
		<g>
			<path class="st0" d="M62.81,36.46c-0.87,0-1.73,0.04-2.58,0.11v23.05v23.05c0.85,0.07,1.71,0.11,2.58,0.11
				c14.38,0,26.2-10.18,27.5-23.17C89.01,46.63,77.19,36.46,62.81,36.46z"/>
			<path class="st1" d="M108.04,29.68l-3.65,4.72c0.56,0.88,1.09,1.77,1.59,2.68l4.47-5.78c0.46-0.6,0.7-1.32,0.74-2.05
				C110.93,30.93,108.86,31.09,108.04,29.68z"/>
			<path class="st0" d="M62.81,36.46c14.38,0,26.2,10.18,27.5,23.17c0.08-0.78,0.12-1.57,0.12-2.37c0-14.1-12.37-25.54-27.62-25.54
				c-0.87,0-1.73,0.04-2.58,0.11v4.75C61.08,36.5,61.94,36.46,62.81,36.46z"/>
			<path class="st1" d="M119.77,66.78l-10.13,1.54c-1.15,4.19-2.94,8.15-5.26,11.77l1.59,2.05c1.56-2.86,2.8-5.9,3.67-9.08
				l10.13-1.55c1.98-0.31,3.69-2.05,3.69-3.91v-4.75C123.46,64.72,121.75,66.47,119.77,66.78z"/>
			<path class="st1" d="M108.36,94.58l-7,6.47c-1.42,1.32-3.9,1.51-5.54,0.43l-8.5-5.61c-3.92,2.15-8.21,3.81-12.74,4.87L72.9,110
				c-0.32,1.83-2.22,3.32-4.23,3.32h-8.44v4.75h8.44c2.01,0,3.91-1.49,4.23-3.32l1.67-9.27c4.53-1.06,8.82-2.73,12.74-4.87l8.5,5.61
				c1.64,1.08,4.11,0.89,5.54-0.42l8.63-7.98c0.72-0.66,1.12-1.58,1.2-2.52C111.03,96.77,108.78,96.97,108.36,94.58z"/>
			<path class="st1" d="M109.99,93.07l-1.63,1.5c0.42,2.39,2.67,2.2,2.83,0.72c0,0,0,0,0,0c0.17-1.64,0.27-4.7-0.12-6.11
				c-0.02-0.07-0.04-0.12-0.07-0.17C111.45,90.4,111.1,92.04,109.99,93.07z"/>
			<path class="st1" d="M110.45,26.55l-2.41,3.13c0.82,1.41,2.89,1.25,3.16-0.43c0-0.02,0.01-0.04,0.01-0.05
				c0.27-2.08,0.01-5.31,0.01-5.31c-0.01-0.04-0.03-0.07-0.05-0.11C111.29,24.75,111.07,25.76,110.45,26.55z"/>
			<path class="st0" d="M62.87,95.5h0.04c1.46,0,2.65-1.22,2.66-2.73v-0.02c0-1.51-1.2-2.74-2.66-2.74c-0.9,0-1.79-0.04-2.67-0.11
				v5.5C61.1,95.47,61.98,95.5,62.87,95.5z"/>
			<path class="st0" d="M119.77,47.73l-10.08-1.55c-0.88-3.18-2.13-6.22-3.7-9.09c-0.5-0.91-1.03-1.81-1.59-2.68l3.65-4.72
				l2.41-3.13c0.61-0.79,0.84-1.8,0.71-2.77c-0.11-0.88-0.5-1.72-1.18-2.35l-8.63-7.98c-1.42-1.32-3.9-1.5-5.54-0.42l-8.5,5.61
				c-3.92-2.14-8.21-3.8-12.74-4.86L72.9,4.5c-0.32-1.83-2.22-3.32-4.23-3.32h-8.44v17.95v12.69c0.85-0.07,1.71-0.11,2.58-0.11
				c15.25,0,27.62,11.44,27.62,25.54c0,0.8-0.05,1.59-0.12,2.37c-1.3,12.99-13.11,23.17-27.5,23.17c-0.87,0-1.73-0.04-2.58-0.11
				v7.85c0.85,0.05,1.7,0.09,2.57,0.09c1.41,0,2.56,1.06,2.57,2.37v0.02c0,1.31-1.15,2.36-2.56,2.37h-0.04
				c-0.85,0-1.7-0.04-2.54-0.08v18.02h8.44c2.01,0,3.91-1.49,4.23-3.32l1.67-9.27c4.53-1.06,8.82-2.72,12.74-4.87l8.5,5.61
				c1.64,1.08,4.11,0.89,5.54-0.43l7-6.47l1.63-1.5c1.11-1.04,1.47-2.67,1.01-4.05c-0.13-0.38-0.3-0.74-0.55-1.06l-4.48-5.8
				l-1.59-2.05c2.32-3.62,4.11-7.58,5.26-11.77l10.13-1.54c1.98-0.31,3.69-2.06,3.69-3.92v-6.47v-4.75
				C123.46,49.79,121.75,48.03,119.77,47.73z"/>
		</g>
		<g>
			<path class="st2" d="M97.69,59.11c0,21.09-17.09,38.18-38.18,38.18c-21.08,0-38.18-17.09-38.18-38.18
				c0-21.09,17.1-38.18,38.18-38.18C80.59,20.93,97.69,38.02,97.69,59.11z"/>
			<path class="st3" d="M59.18,12.16v5.35c-23.37,0-42.31,18.94-42.31,42.31c0,23.37,18.95,42.31,42.31,42.31v5.34
				c-26.32,0-47.66-21.33-47.66-47.66C11.53,33.5,32.86,12.16,59.18,12.16z"/>
			<path class="st3" d="M60.07,0.91v6.57C31.34,7.48,8.05,30.77,8.05,59.5c0,28.73,23.29,52.02,52.02,52.02v6.57
				c-32.36,0-58.59-26.23-58.59-58.59C1.48,27.14,27.71,0.91,60.07,0.91z"/>
			<path class="st3" d="M60,20.94c-0.17,0-0.33-0.01-0.5-0.01c-21.08,0-38.18,17.09-38.18,38.18c0,21.09,17.1,38.18,38.18,38.18
				c0.17,0,0.33-0.01,0.5-0.01V20.94z"/>
		</g>
		<path class="st4" d="M78.76,56.94c-1.54-0.61-3.48-1.09-5.74-1.42c-2.26-0.32-4.95-0.49-8.01-0.49h-1.48
			c-0.63,0-1.34,0.02-2.16,0.06h-0.88c-0.19,0-0.37,0.01-0.55,0.03c-0.14,0.02-0.28,0.03-0.41,0.03c-1.29,0.04-2.42,0.06-3.37,0.06
			h-2.09c-4.22,0-7.39-0.38-9.42-1.14c-2.38-0.86-3.54-2.31-3.54-4.45c0-2.13,0.59-3.55,1.76-4.23c0.51-0.31,1.22-0.56,2.11-0.75
			c0.9-0.2,2.04-0.3,3.41-0.3h20.67c3,0,5.28,0.34,6.77,1.01c0.97,0.42,1.67,1.04,2.09,1.85c0.43,0.84,0.67,1.84,0.72,2.97
			c0,0.46,0.31,0.74,0.82,0.74h4.39c0.47,0,0.76-0.28,0.76-0.74c0-7.56-4.96-11.39-14.74-11.39H48.52
			c-8.93,0-13.45,3.63-13.45,10.79c0,4.47,1.99,7.58,5.9,9.24c2.86,1.23,7.24,1.85,13.02,1.85h1.76c0.73,0,1.58-0.02,2.5-0.06h0.88
			c0.2,0,0.37-0.01,0.52-0.04c0.12-0.02,0.21-0.03,0.29-0.03h2.31c0.83-0.04,1.51-0.06,2.08-0.06h1.62c2.13,0,4.03,0.08,5.64,0.24
			c1.58,0.16,2.87,0.44,3.84,0.84c2.38,0.86,3.53,2.43,3.53,4.81c0,1.14-0.17,2.13-0.52,2.95c-0.34,0.79-0.93,1.43-1.77,1.88
			c-0.65,0.35-1.48,0.63-2.48,0.82c-1.01,0.2-2.28,0.3-3.79,0.3H51.02c-1.55,0-2.92-0.1-4.07-0.3c-1.14-0.2-2.07-0.46-2.77-0.77
			c-0.97-0.42-1.67-1.03-2.09-1.83c-0.43-0.82-0.67-1.83-0.71-3c0-0.5-0.33-0.8-0.89-0.8h-4.25c-0.52,0-0.82,0.3-0.82,0.8
			c0,3.8,1.42,6.73,4.22,8.72c2.38,1.78,5.76,2.68,10.04,2.68H70.6c2.4,0,4.5-0.18,6.24-0.52c1.77-0.35,3.22-0.93,4.34-1.73
			c2.49-1.87,3.75-4.92,3.75-9.08C84.94,61.98,82.86,58.77,78.76,56.94z"/>
	</g>
	<g>
		<g>
			<path class="st5" d="M182.36,61.02c-1.55-0.69-3.49-1.22-5.76-1.59c-2.26-0.36-4.97-0.55-8.04-0.55h-1.49
				c-0.63,0-1.34,0.02-2.17,0.07h-0.88c-0.19,0-0.38,0.01-0.55,0.04c-0.15,0.02-0.28,0.03-0.41,0.03c-1.3,0.04-2.43,0.07-3.38,0.07
				h-2.1c-4.24,0-7.41-0.43-9.45-1.27c-2.39-0.96-3.55-2.59-3.55-4.99c0-2.38,0.59-3.98,1.77-4.74c0.51-0.34,1.22-0.63,2.11-0.85
				c0.9-0.22,2.05-0.33,3.42-0.33h20.74c3.01,0,5.29,0.38,6.79,1.13c0.97,0.47,1.68,1.17,2.1,2.08c0.43,0.94,0.67,2.06,0.72,3.32
				c0,0.52,0.31,0.83,0.83,0.83h4.41c0.47,0,0.76-0.31,0.76-0.83c0-8.47-4.97-12.76-14.79-12.76h-21.41
				c-8.96,0-13.5,4.07-13.5,12.08c0,5.01,1.99,8.49,5.92,10.35c2.87,1.37,7.27,2.07,13.06,2.07h1.76c0.73,0,1.58-0.02,2.51-0.07
				h0.88c0.2,0,0.38-0.01,0.52-0.04c0.12-0.02,0.21-0.03,0.29-0.03h2.32c0.83-0.04,1.51-0.07,2.08-0.07h1.63
				c2.14,0,4.05,0.09,5.66,0.27c1.59,0.18,2.88,0.49,3.86,0.94c2.39,0.96,3.55,2.73,3.55,5.39c0,1.27-0.18,2.39-0.52,3.31
				c-0.34,0.89-0.94,1.6-1.78,2.11c-0.65,0.39-1.49,0.7-2.49,0.92c-1.01,0.22-2.29,0.33-3.8,0.33h-19.45
				c-1.56,0-2.93-0.11-4.08-0.34c-1.14-0.22-2.08-0.51-2.78-0.86c-0.97-0.47-1.68-1.16-2.1-2.05c-0.43-0.92-0.67-2.05-0.72-3.35
				c0-0.57-0.33-0.9-0.89-0.9h-4.27c-0.52,0-0.83,0.34-0.83,0.9c0,4.25,1.43,7.54,4.24,9.76c2.39,1.99,5.78,3,10.07,3h21.01
				c2.4,0,4.51-0.2,6.26-0.58c1.77-0.39,3.24-1.04,4.36-1.93c2.5-2.09,3.76-5.52,3.76-10.18C188.56,66.67,186.48,63.07,182.36,61.02
				z"/>
			<path class="st5" d="M253.94,40.68h-9.22c-0.31,0-0.53,0.07-0.67,0.22l-0.03,0.03l-20.23,34.78l-19.61-34.82l-0.04-0.08
				l-0.08-0.04c-0.13-0.06-0.29-0.1-0.46-0.1h-9.76c-0.57,0-0.89,0.35-0.89,0.97v41.86c0,0.56,0.33,0.9,0.89,0.9h4.4
				c0.56,0,0.9-0.33,0.9-0.9V45.82h0.77l21.8,38.38l0.04,0.07l0.07,0.04c0.13,0.07,0.27,0.1,0.4,0.1h2.91
				c0.31,0,0.53-0.07,0.67-0.22l0.03-0.03l22.03-38.34h0.84v37.69c0,0.56,0.33,0.9,0.89,0.9h4.34c0.18,0,0.76-0.06,0.76-0.9V41.65
				C254.7,40.77,254.16,40.68,253.94,40.68z"/>
			<path class="st5" d="M306.29,41.26v-0.46l-0.14,0.28c-0.17-0.17-0.4-0.26-0.69-0.26h-4.88c-0.4,0-0.51,0.2-0.54,0.33
				l-18.87,36.89l-18.48-36.44h0.29l-0.47-0.48l-0.07-0.12c-0.05-0.07-0.11-0.12-0.19-0.14l-0.3-0.31v0.27c-0.02,0-0.04,0-0.06,0
				h-4.88c-0.25,0-0.46,0.09-0.62,0.26l-0.14-0.28v0.47c-0.09,0.15-0.13,0.3-0.13,0.46c0,0.26,0.07,0.47,0.22,0.61l0.11,0.1
				l21.12,41.82l0.05,0.07c0.14,0.15,0.35,0.22,0.61,0.22h6.03c0.26,0,0.46-0.07,0.61-0.22l0.03-0.03l21.2-41.86l0.11-0.11
				c0.14-0.15,0.22-0.35,0.22-0.61C306.43,41.56,306.38,41.41,306.29,41.26z"/>
		</g>
		<path class="st5" d="M131.88,39.75h-3.75c-0.28,0-0.93,0.1-0.93,1v43.08c0,0.58,0.35,0.93,0.93,0.93h3.75
			c0.2,0,0.86-0.07,0.86-0.93V40.75C132.74,39.85,132.14,39.75,131.88,39.75z"/>
	</g>
</g>
</svg>
