<?xml version="1.0" encoding="utf-8"?>
<!-- Generator: Adobe Illustrator 23.0.3, SVG Export Plug-In . SVG Version: 6.00 Build 0)  -->
<svg version="1.1" id="Capa_1" xmlns="http://www.w3.org/2000/svg" xmlns:xlink="http://www.w3.org/1999/xlink" x="0px" y="0px"
	 viewBox="0 0 443.47 169.47" style="enable-background:new 0 0 443.47 169.47;" xml:space="preserve">
<style type="text/css">
	.st0{fill:#706F6F;}
	.st1{fill:#FFFFFF;}
	.st2{fill:#727272;}
	.st3{fill:#9D9D9C;}
	.st4{fill:#B2B2B2;}
	.st5{fill:#DADADA;}
</style>
<g>
	<g>
		<g>
			<path class="st0" d="M264,80.46c-2.24-0.99-5.05-1.77-8.34-2.3c-3.27-0.53-7.19-0.79-11.63-0.79h-2.15
				c-0.91,0-1.94,0.03-3.14,0.1h-1.27c-0.28,0-0.54,0.02-0.79,0.05c-0.21,0.03-0.4,0.04-0.59,0.05c-1.88,0.06-3.52,0.1-4.89,0.1
				h-3.04c-6.13,0-10.72-0.62-13.67-1.84c-3.45-1.39-5.13-3.75-5.13-7.21c0-3.45,0.86-5.75,2.56-6.86c0.74-0.49,1.77-0.91,3.06-1.22
				c1.3-0.32,2.97-0.48,4.95-0.48h30c4.36,0,7.66,0.55,9.82,1.64c1.41,0.68,2.43,1.69,3.04,3c0.63,1.36,0.98,2.98,1.04,4.81
				c0,0.75,0.44,1.2,1.19,1.2h6.37c0.69,0,1.1-0.45,1.1-1.2c0-12.25-7.19-18.46-21.39-18.46h-30.97c-12.96,0-19.52,5.88-19.52,17.47
				c0,7.24,2.88,12.28,8.57,14.97c4.15,1.99,10.51,3,18.9,3h2.55c1.06,0,2.29-0.03,3.63-0.1h1.28c0.29,0,0.54-0.02,0.75-0.06
				c0.17-0.03,0.31-0.04,0.42-0.04h3.36c1.2-0.06,2.19-0.1,3.02-0.1h2.35c3.1,0,5.85,0.13,8.19,0.39c2.3,0.26,4.17,0.71,5.58,1.35
				c3.45,1.39,5.13,3.94,5.13,7.8c0,1.85-0.25,3.45-0.76,4.78c-0.49,1.29-1.36,2.31-2.57,3.05c-0.94,0.57-2.15,1.01-3.6,1.33
				c-1.46,0.32-3.31,0.48-5.5,0.48h-28.13c-2.26,0-4.24-0.17-5.9-0.49c-1.66-0.32-3.01-0.74-4.02-1.25
				c-1.41-0.68-2.43-1.67-3.04-2.96c-0.63-1.33-0.98-2.96-1.04-4.85c0-0.81-0.48-1.3-1.29-1.3h-6.17c-0.75,0-1.2,0.49-1.2,1.3
				c0,6.15,2.07,10.91,6.13,14.13c3.46,2.88,8.36,4.34,14.57,4.34h30.38c3.48,0,6.53-0.29,9.06-0.85c2.56-0.57,4.68-1.51,6.3-2.8
				c3.61-3.03,5.44-7.98,5.44-14.72C272.97,88.63,269.96,83.43,264,80.46z"/>
			<path class="st0" d="M367.54,51.04h-13.33c-0.45,0-0.77,0.1-0.97,0.32l-0.04,0.04l-29.27,50.32l-28.37-50.36l-0.06-0.11
				l-0.12-0.06c-0.19-0.09-0.41-0.14-0.67-0.14H280.6c-0.82,0-1.29,0.51-1.29,1.4v60.55c0,0.82,0.48,1.3,1.29,1.3h6.37
				c0.81,0,1.29-0.49,1.29-1.3V58.47h1.12l31.54,55.51l0.06,0.11l0.11,0.05c0.19,0.09,0.38,0.14,0.58,0.14h4.21
				c0.45,0,0.77-0.1,0.98-0.32l0.04-0.04l31.86-55.46h1.21v54.52c0,0.82,0.48,1.3,1.29,1.3h6.27c0.26,0,1.1-0.1,1.1-1.3V52.44
				C368.64,51.17,367.87,51.04,367.54,51.04z"/>
			<path class="st0" d="M443.27,51.88V51.2l-0.2,0.4c-0.24-0.25-0.58-0.38-0.99-0.38h-7.06c-0.58,0-0.74,0.29-0.78,0.48
				l-27.29,53.36l-26.73-52.71h0.42l-0.68-0.69l-0.11-0.17c-0.07-0.1-0.16-0.17-0.27-0.21l-0.44-0.45v0.39c-0.03,0-0.05,0-0.08,0
				H372c-0.36,0-0.66,0.13-0.9,0.37l-0.2-0.4v0.67c-0.13,0.21-0.2,0.43-0.2,0.66c0,0.38,0.11,0.67,0.32,0.88l0.16,0.15l30.55,60.5
				l0.08,0.1c0.21,0.21,0.5,0.32,0.88,0.32h8.72c0.37,0,0.67-0.1,0.88-0.32l0.04-0.05l30.67-60.54l0.16-0.16
				c0.21-0.21,0.32-0.51,0.32-0.88C443.47,52.31,443.4,52.09,443.27,51.88z"/>
		</g>
		<path class="st0" d="M190.99,49.7h-5.42c-0.41,0-1.35,0.14-1.35,1.44v62.31c0,0.84,0.5,1.34,1.35,1.34h5.42
			c0.29,0,1.24-0.1,1.24-1.34V51.14C192.22,49.84,191.36,49.7,190.99,49.7z"/>
	</g>
	<g>
		<g>
			<path class="st1" d="M88.71,51.42c-1.26,0-2.5,0.06-3.73,0.16v33.35v33.35c1.23,0.11,2.47,0.16,3.73,0.16
				c20.81,0,37.9-14.72,39.78-33.51C126.61,66.14,109.51,51.42,88.71,51.42z"/>
			<path class="st2" d="M154.14,41.63l-5.27,6.83c0.81,1.27,1.58,2.56,2.3,3.88l6.46-8.37c0.67-0.87,1.01-1.91,1.07-2.97
				C158.32,43.43,155.32,43.66,154.14,41.63z"/>
			<path class="st1" d="M88.71,51.42c20.81,0,37.9,14.72,39.78,33.51c0.11-1.13,0.18-2.28,0.18-3.44c0-20.4-17.89-36.95-39.95-36.95
				c-1.26,0-2.5,0.06-3.73,0.17v6.87C86.21,51.48,87.45,51.42,88.71,51.42z"/>
			<path class="st2" d="M171.11,95.28l-14.66,2.23c-1.67,6.06-4.25,11.79-7.61,17.03l2.3,2.97c2.26-4.14,4.05-8.54,5.31-13.13
				l14.66-2.24c2.86-0.44,5.34-2.97,5.34-5.66v-6.87C176.45,92.3,173.97,94.83,171.11,95.28z"/>
			<path class="st2" d="M154.6,135.49l-10.13,9.36c-2.06,1.91-5.64,2.18-8.01,0.62l-12.3-8.12c-5.67,3.11-11.87,5.51-18.42,7.04
				l-2.42,13.41c-0.47,2.65-3.21,4.8-6.12,4.8H84.98v6.87h12.21c2.91,0,5.66-2.15,6.12-4.8l2.42-13.4
				c6.55-1.54,12.76-3.95,18.42-7.05l12.3,8.11c2.37,1.57,5.95,1.28,8.01-0.61l12.48-11.55c1.04-0.96,1.62-2.28,1.73-3.64
				C158.46,138.67,155.2,138.95,154.6,135.49z"/>
			<path class="st2" d="M156.96,133.32l-2.35,2.17c0.6,3.46,3.86,3.18,4.09,1.05c0,0,0,0,0,0c0.25-2.37,0.39-6.8-0.18-8.83
				c-0.03-0.1-0.07-0.17-0.1-0.25C159.08,129.46,158.57,131.82,156.96,133.32z"/>
			<path class="st2" d="M157.63,37.09l-3.49,4.53c1.18,2.03,4.18,1.8,4.56-0.63c0.01-0.03,0.02-0.05,0.02-0.08
				c0.39-3.01,0.01-7.68,0.01-7.68c-0.02-0.06-0.05-0.1-0.07-0.15C158.84,34.49,158.52,35.95,157.63,37.09z"/>
			<path class="st3" d="M171.11,67.73l-14.58-2.24c-1.27-4.59-3.08-9-5.36-13.15c-0.72-1.32-1.49-2.62-2.3-3.88l5.27-6.83l3.49-4.53
				c0.89-1.15,1.21-2.6,1.03-4c-0.16-1.27-0.73-2.5-1.71-3.4l-12.49-11.54c-2.06-1.9-5.64-2.17-8.01-0.61l-12.3,8.11
				c-5.67-3.1-11.87-5.49-18.42-7.03L103.32,5.2c-0.47-2.64-3.21-4.8-6.12-4.8H84.98v25.96v18.36c1.23-0.11,2.47-0.17,3.73-0.17
				c22.06,0,39.95,16.55,39.95,36.95c0,1.16-0.06,2.3-0.18,3.44c-1.88,18.79-18.97,33.51-39.78,33.51c-1.26,0-2.5-0.06-3.73-0.16
				v11.36c1.23,0.08,2.46,0.14,3.71,0.14c2.04,0,3.71,1.54,3.71,3.43v0.02c-0.01,1.89-1.67,3.42-3.7,3.43h-0.06
				c-1.23,0-2.46-0.05-3.67-0.12v26.06h12.21c2.91,0,5.66-2.15,6.12-4.8l2.42-13.41c6.55-1.54,12.76-3.94,18.42-7.04l12.3,8.12
				c2.37,1.57,5.95,1.29,8.01-0.62l10.13-9.36l2.35-2.17c1.61-1.5,2.12-3.86,1.46-5.87c-0.18-0.55-0.43-1.07-0.79-1.54l-6.48-8.39
				l-2.3-2.97c3.36-5.24,5.95-10.96,7.61-17.03l14.66-2.23c2.86-0.45,5.34-2.98,5.34-5.67v-9.36v-6.88
				C176.45,70.71,173.97,68.17,171.11,67.73z M88.69,33.23c-2.05,0-3.71-1.54-3.71-3.43c0-1.89,1.64-3.42,3.69-3.43h0.12
				c32.85,0.05,59.57,24.76,59.57,55.14c0,1.91-1.66,3.43-3.71,3.43c-2.05,0-3.72-1.52-3.72-3.42
				C140.92,54.89,117.5,33.23,88.69,33.23z"/>
			<path class="st1" d="M88.8,136.83h0.06c2.11-0.01,3.84-1.77,3.84-3.95v-0.03c-0.01-2.18-1.73-3.96-3.86-3.96
				c-1.3,0-2.58-0.06-3.86-0.16v7.96C86.25,136.78,87.52,136.83,88.8,136.83z"/>
			<path class="st3" d="M144.64,84.93c2.06,0,3.71-1.52,3.71-3.43c0-30.38-26.72-55.09-59.57-55.14h-0.12
				c-2.04,0.01-3.69,1.54-3.69,3.43c0,1.9,1.66,3.43,3.71,3.43c28.81,0,52.23,21.66,52.23,48.28
				C140.92,83.41,142.59,84.93,144.64,84.93z"/>
		</g>
		<path class="st4" d="M139.16,84.19c0,30.5-24.73,55.23-55.23,55.23c-30.5,0-55.23-24.73-55.23-55.23
			c0-30.5,24.73-55.23,55.23-55.23C114.44,28.96,139.16,53.69,139.16,84.19z"/>
		<path class="st0" d="M83.47,16.27v7.73c-33.8,0-61.2,27.4-61.2,61.2c0,33.8,27.4,61.21,61.2,61.21v7.73
			c-38.07,0-68.94-30.86-68.94-68.94C14.53,47.14,45.4,16.27,83.47,16.27z"/>
		<path class="st0" d="M84.75,0v9.5C43.2,9.5,9.5,43.2,9.5,84.76c0,41.56,33.69,75.25,75.25,75.25v9.51
			C37.95,169.51,0,131.57,0,84.76S37.95,0,84.75,0z"/>
		<path class="st0" d="M84.65,28.98c-0.24,0-0.48-0.02-0.72-0.02c-30.5,0-55.23,24.73-55.23,55.23c0,30.5,24.73,55.23,55.23,55.23
			c0.24,0,0.48-0.01,0.72-0.02V28.98z"/>
		<path class="st5" d="M116.01,80.56c-2.52-1-5.67-1.78-9.37-2.32c-3.68-0.53-8.08-0.8-13.08-0.8h-2.43c-1.02,0-2.19,0.03-3.53,0.1
			h-1.43c-0.31,0-0.61,0.02-0.89,0.05c-0.23,0.03-0.45,0.04-0.67,0.05c-2.11,0.06-3.96,0.1-5.49,0.1h-3.42
			c-6.89,0-12.06-0.62-15.37-1.86c-3.88-1.4-5.77-3.78-5.77-7.26c0-3.48,0.97-5.8,2.88-6.9c0.83-0.5,1.99-0.92,3.44-1.23
			c1.46-0.32,3.34-0.48,5.57-0.48h33.72c4.9,0,8.61,0.55,11.04,1.65c1.58,0.68,2.73,1.7,3.42,3.03c0.71,1.37,1.1,3,1.17,4.84
			c0,0.76,0.5,1.21,1.34,1.21h7.17c0.77,0,1.23-0.45,1.23-1.21c0-12.34-8.09-18.59-24.05-18.59H66.67
			c-14.56,0-21.95,5.92-21.95,17.6c0,7.29,3.24,12.37,9.63,15.08c4.67,2,11.82,3.02,21.25,3.02h2.87c1.19,0,2.57-0.03,4.08-0.1h1.43
			c0.33,0,0.61-0.02,0.85-0.06c0.19-0.03,0.35-0.04,0.48-0.04h3.77c1.35-0.07,2.46-0.1,3.39-0.1h2.64c3.48,0,6.58,0.13,9.21,0.39
			c2.58,0.26,4.69,0.71,6.27,1.36c3.88,1.4,5.77,3.97,5.77,7.86c0,1.86-0.29,3.48-0.85,4.82c-0.55,1.3-1.52,2.33-2.89,3.07
			c-1.06,0.57-2.42,1.02-4.05,1.34c-1.65,0.32-3.72,0.49-6.18,0.49H70.75c-2.54,0-4.77-0.17-6.63-0.49
			c-1.86-0.32-3.38-0.74-4.52-1.26c-1.58-0.68-2.73-1.69-3.42-2.98c-0.7-1.33-1.1-2.98-1.17-4.88c0-0.82-0.54-1.31-1.45-1.31h-6.94
			c-0.84,0-1.34,0.49-1.34,1.31c0,6.2,2.32,10.99,6.89,14.23c3.89,2.9,9.4,4.37,16.38,4.37h34.16c3.91,0,7.34-0.29,10.18-0.86
			c2.88-0.57,5.26-1.52,7.08-2.82c4.06-3.05,6.12-8.04,6.12-14.82C126.1,88.78,122.71,83.54,116.01,80.56z"/>
	</g>
</g>
</svg>
