<?xml version="1.0" encoding="utf-8"?>
<!-- Generator: Adobe Illustrator 23.0.3, SVG Export Plug-In . SVG Version: 6.00 Build 0)  -->
<svg version="1.1" id="Capa_1" xmlns="http://www.w3.org/2000/svg" xmlns:xlink="http://www.w3.org/1999/xlink" x="0px" y="0px"
	 viewBox="0 0 308 120" style="enable-background:new 0 0 308 120;" xml:space="preserve">
<style type="text/css">
	.st0{fill:#2A605E;}
	.st1{fill:#55BBA7;}
	.st2{fill:#FFA110;}
	.st3{fill:#F68C0B;}
	.st4{fill:#FFFFFF;}
</style>
<g>
	<g>
		<g>
			<path class="st0" d="M62.8,36.5c-0.9,0-1.7,0-2.6,0.1v23v23c0.8,0.1,1.7,0.1,2.6,0.1c14.4,0,26.2-10.2,27.5-23.2
				C89,46.6,77.2,36.5,62.8,36.5z"/>
			<path class="st1" d="M108,29.7l-3.7,4.7c0.6,0.9,1.1,1.8,1.6,2.7l4.5-5.8c0.5-0.6,0.7-1.3,0.7-2C110.9,30.9,108.9,31.1,108,29.7z
				"/>
			<path class="st0" d="M62.8,36.5c14.4,0,26.2,10.2,27.5,23.2c0.1-0.8,0.1-1.6,0.1-2.4c0-14.1-12.4-25.5-27.6-25.5
				c-0.9,0-1.7,0-2.6,0.1v4.8C61.1,36.5,61.9,36.5,62.8,36.5z"/>
			<path class="st1" d="M119.8,66.8l-10.1,1.5c-1.2,4.2-2.9,8.2-5.3,11.8l1.6,2.1c1.6-2.9,2.8-5.9,3.7-9.1l10.1-1.6
				c2-0.3,3.7-2.1,3.7-3.9v-4.8C123.5,64.7,121.8,66.5,119.8,66.8z"/>
			<path class="st1" d="M108.4,94.6l-7,6.5c-1.4,1.3-3.9,1.5-5.5,0.4l-8.5-5.6c-3.9,2.2-8.2,3.8-12.7,4.9l-1.7,9.3
				c-0.3,1.8-2.2,3.3-4.2,3.3h-8.4v4.8h8.4c2,0,3.9-1.5,4.2-3.3l1.7-9.3c4.5-1.1,8.8-2.7,12.7-4.9l8.5,5.6c1.6,1.1,4.1,0.9,5.5-0.4
				l8.6-8c0.7-0.7,1.1-1.6,1.2-2.5C111,96.8,108.8,97,108.4,94.6z"/>
			<path class="st1" d="M110,93.1l-1.6,1.5c0.4,2.4,2.7,2.2,2.8,0.7l0,0c0.2-1.6,0.3-4.7-0.1-6.1c0-0.1,0-0.1-0.1-0.2
				C111.4,90.4,111.1,92,110,93.1z"/>
			<path class="st1" d="M110.4,26.5l-2.4,3.1c0.8,1.4,2.9,1.3,3.2-0.4c0,0,0,0,0,0c0.3-2.1,0-5.3,0-5.3c0,0,0-0.1-0.1-0.1
				C111.3,24.8,111.1,25.8,110.4,26.5z"/>
			<path class="st0" d="M62.9,95.5L62.9,95.5c1.5,0,2.7-1.2,2.7-2.7v0c0-1.5-1.2-2.7-2.7-2.7c-0.9,0-1.8,0-2.7-0.1v5.5
				C61.1,95.5,62,95.5,62.9,95.5z"/>
			<path class="st0" d="M119.8,47.7l-10.1-1.5c-0.9-3.2-2.1-6.2-3.7-9.1c-0.5-0.9-1-1.8-1.6-2.7l3.7-4.7l2.4-3.1
				c0.6-0.8,0.8-1.8,0.7-2.8c-0.1-0.9-0.5-1.7-1.2-2.4l-8.6-8c-1.4-1.3-3.9-1.5-5.5-0.4l-8.5,5.6c-3.9-2.1-8.2-3.8-12.7-4.9
				l-1.7-9.3c-0.3-1.8-2.2-3.3-4.2-3.3h-8.4v18v12.7c0.8-0.1,1.7-0.1,2.6-0.1c15.3,0,27.6,11.4,27.6,25.5c0,0.8-0.1,1.6-0.1,2.4
				c-1.3,13-13.1,23.2-27.5,23.2c-0.9,0-1.7,0-2.6-0.1v7.8c0.8,0.1,1.7,0.1,2.6,0.1c1.4,0,2.6,1.1,2.6,2.4v0c0,1.3-1.2,2.4-2.6,2.4
				h0c-0.8,0-1.7,0-2.5-0.1v18h8.4c2,0,3.9-1.5,4.2-3.3l1.7-9.3c4.5-1.1,8.8-2.7,12.7-4.9l8.5,5.6c1.6,1.1,4.1,0.9,5.5-0.4l7-6.5
				l1.6-1.5c1.1-1,1.5-2.7,1-4.1c-0.1-0.4-0.3-0.7-0.6-1.1l-4.5-5.8l-1.6-2.1c2.3-3.6,4.1-7.6,5.3-11.8l10.1-1.5
				c2-0.3,3.7-2.1,3.7-3.9v-6.5v-4.8C123.5,49.8,121.8,48,119.8,47.7z"/>
		</g>
		<g>
			<path class="st2" d="M97.7,59.1c0,21.1-17.1,38.2-38.2,38.2c-21.1,0-38.2-17.1-38.2-38.2s17.1-38.2,38.2-38.2S97.7,38,97.7,59.1z
				"/>
			<path class="st3" d="M59.2,12.2v5.4c-23.4,0-42.3,18.9-42.3,42.3s19,42.3,42.3,42.3v5.3c-26.3,0-47.7-21.3-47.7-47.7
				C11.5,33.5,32.9,12.2,59.2,12.2z"/>
			<path class="st3" d="M60.1,0.9v6.6c-28.7,0-52,23.3-52,52s23.3,52,52,52v6.6c-32.4,0-58.6-26.2-58.6-58.6
				C1.5,27.1,27.7,0.9,60.1,0.9z"/>
			<path class="st3" d="M60,20.9c-0.2,0-0.3,0-0.5,0c-21.1,0-38.2,17.1-38.2,38.2s17.1,38.2,38.2,38.2c0.2,0,0.3,0,0.5,0V20.9z"/>
		</g>
		<path class="st4" d="M78.8,56.9c-1.5-0.6-3.5-1.1-5.7-1.4c-2.3-0.3-4.9-0.5-8-0.5h-1.5c-0.6,0-1.3,0-2.2,0.1h-0.9
			c-0.2,0-0.4,0-0.5,0c-0.1,0-0.3,0-0.4,0c-1.3,0-2.4,0.1-3.4,0.1h-2.1c-4.2,0-7.4-0.4-9.4-1.1c-2.4-0.9-3.5-2.3-3.5-4.5
			c0-2.1,0.6-3.5,1.8-4.2c0.5-0.3,1.2-0.6,2.1-0.8c0.9-0.2,2-0.3,3.4-0.3h20.7c3,0,5.3,0.3,6.8,1c1,0.4,1.7,1,2.1,1.8
			c0.4,0.8,0.7,1.8,0.7,3c0,0.5,0.3,0.7,0.8,0.7h4.4c0.5,0,0.8-0.3,0.8-0.7c0-7.6-5-11.4-14.7-11.4H48.5c-8.9,0-13.5,3.6-13.5,10.8
			c0,4.5,2,7.6,5.9,9.2c2.9,1.2,7.2,1.8,13,1.8h1.8c0.7,0,1.6,0,2.5-0.1h0.9c0.2,0,0.4,0,0.5,0c0.1,0,0.2,0,0.3,0h2.3
			c0.8,0,1.5-0.1,2.1-0.1H66c2.1,0,4,0.1,5.6,0.2c1.6,0.2,2.9,0.4,3.8,0.8c2.4,0.9,3.5,2.4,3.5,4.8c0,1.1-0.2,2.1-0.5,2.9
			c-0.3,0.8-0.9,1.4-1.8,1.9c-0.7,0.3-1.5,0.6-2.5,0.8c-1,0.2-2.3,0.3-3.8,0.3H51c-1.5,0-2.9-0.1-4.1-0.3c-1.1-0.2-2.1-0.5-2.8-0.8
			c-1-0.4-1.7-1-2.1-1.8c-0.4-0.8-0.7-1.8-0.7-3c0-0.5-0.3-0.8-0.9-0.8h-4.3c-0.5,0-0.8,0.3-0.8,0.8c0,3.8,1.4,6.7,4.2,8.7
			c2.4,1.8,5.8,2.7,10,2.7h20.9c2.4,0,4.5-0.2,6.2-0.5c1.8-0.3,3.2-0.9,4.3-1.7c2.5-1.9,3.8-4.9,3.8-9.1
			C84.9,62,82.9,58.8,78.8,56.9z"/>
	</g>
	<g>
		<g>
			<path class="st4" d="M182.4,61c-1.6-0.7-3.5-1.2-5.8-1.6c-2.3-0.4-5-0.5-8-0.5h-1.5c-0.6,0-1.3,0-2.2,0.1H164c-0.2,0-0.4,0-0.6,0
				c-0.1,0-0.3,0-0.4,0c-1.3,0-2.4,0.1-3.4,0.1h-2.1c-4.2,0-7.4-0.4-9.4-1.3c-2.4-1-3.6-2.6-3.6-5c0-2.4,0.6-4,1.8-4.7
				c0.5-0.3,1.2-0.6,2.1-0.8c0.9-0.2,2.1-0.3,3.4-0.3h20.7c3,0,5.3,0.4,6.8,1.1c1,0.5,1.7,1.2,2.1,2.1c0.4,0.9,0.7,2.1,0.7,3.3
				c0,0.5,0.3,0.8,0.8,0.8h4.4c0.5,0,0.8-0.3,0.8-0.8c0-8.5-5-12.8-14.8-12.8H152c-9,0-13.5,4.1-13.5,12.1c0,5,2,8.5,5.9,10.3
				c2.9,1.4,7.3,2.1,13.1,2.1h1.8c0.7,0,1.6,0,2.5-0.1h0.9c0.2,0,0.4,0,0.5,0c0.1,0,0.2,0,0.3,0h2.3c0.8,0,1.5-0.1,2.1-0.1h1.6
				c2.1,0,4.1,0.1,5.7,0.3c1.6,0.2,2.9,0.5,3.9,0.9c2.4,1,3.6,2.7,3.6,5.4c0,1.3-0.2,2.4-0.5,3.3c-0.3,0.9-0.9,1.6-1.8,2.1
				c-0.6,0.4-1.5,0.7-2.5,0.9c-1,0.2-2.3,0.3-3.8,0.3h-19.4c-1.6,0-2.9-0.1-4.1-0.3c-1.1-0.2-2.1-0.5-2.8-0.9
				c-1-0.5-1.7-1.2-2.1-2.1c-0.4-0.9-0.7-2.1-0.7-3.3c0-0.6-0.3-0.9-0.9-0.9h-4.3c-0.5,0-0.8,0.3-0.8,0.9c0,4.3,1.4,7.5,4.2,9.8
				c2.4,2,5.8,3,10.1,3h21c2.4,0,4.5-0.2,6.3-0.6c1.8-0.4,3.2-1,4.4-1.9c2.5-2.1,3.8-5.5,3.8-10.2C188.6,66.7,186.5,63.1,182.4,61z"
				/>
			<path class="st4" d="M253.9,40.7h-9.2c-0.3,0-0.5,0.1-0.7,0.2l0,0l-20.2,34.8l-19.6-34.8l0-0.1l-0.1,0c-0.1-0.1-0.3-0.1-0.5-0.1
				h-9.8c-0.6,0-0.9,0.3-0.9,1v41.9c0,0.6,0.3,0.9,0.9,0.9h4.4c0.6,0,0.9-0.3,0.9-0.9V45.8h0.8l21.8,38.4l0,0.1l0.1,0
				c0.1,0.1,0.3,0.1,0.4,0.1h2.9c0.3,0,0.5-0.1,0.7-0.2l0,0l22-38.3h0.8v37.7c0,0.6,0.3,0.9,0.9,0.9h4.3c0.2,0,0.8-0.1,0.8-0.9V41.7
				C254.7,40.8,254.2,40.7,253.9,40.7z"/>
			<path class="st4" d="M306.3,41.3v-0.5l-0.1,0.3c-0.2-0.2-0.4-0.3-0.7-0.3h-4.9c-0.4,0-0.5,0.2-0.5,0.3L281.2,78l-18.5-36.4h0.3
				l-0.5-0.5l-0.1-0.1c0-0.1-0.1-0.1-0.2-0.1l-0.3-0.3v0.3c0,0,0,0-0.1,0H257c-0.3,0-0.5,0.1-0.6,0.3l-0.1-0.3v0.5
				c-0.1,0.2-0.1,0.3-0.1,0.5c0,0.3,0.1,0.5,0.2,0.6l0.1,0.1l21.1,41.8l0,0.1c0.1,0.2,0.4,0.2,0.6,0.2h6c0.3,0,0.5-0.1,0.6-0.2l0,0
				l21.2-41.9l0.1-0.1c0.1-0.2,0.2-0.3,0.2-0.6C306.4,41.6,306.4,41.4,306.3,41.3z"/>
		</g>
		<path class="st4" d="M131.9,39.8h-3.8c-0.3,0-0.9,0.1-0.9,1v43.1c0,0.6,0.3,0.9,0.9,0.9h3.8c0.2,0,0.9-0.1,0.9-0.9V40.8
			C132.7,39.8,132.1,39.8,131.9,39.8z"/>
	</g>
</g>
</svg>
